<mxfile host="app.diagrams.net" agent="Mozilla/5.0 (Windows NT 10.0; WOW64) AppleWebKit/537.36 (KHTML, like Gecko) Chrome/109.0.0.0 Safari/537.36" version="26.0.16">
  <diagram name="Page-1" id="e3a06f82-3646-2815-327d-82caf3d4e204">
    <mxGraphModel dx="2049" dy="1080" grid="1" gridSize="10" guides="1" tooltips="1" connect="1" arrows="1" fold="1" page="1" pageScale="1.5" pageWidth="1169" pageHeight="826" background="none" math="0" shadow="0">
      <root>
        <mxCell id="0" style=";html=1;" />
        <mxCell id="1" style=";html=1;" parent="0" />
        <mxCell id="mrG-GgRrGo7XpKcj4Rmo-52" value="核心网络" style="whiteSpace=wrap;html=1;fillColor=#ffe6cc;fontSize=14;strokeColor=#d79b00;verticalAlign=top;" vertex="1" parent="1">
          <mxGeometry x="1890" y="517.5" width="450" height="360" as="geometry" />
        </mxCell>
        <mxCell id="mrG-GgRrGo7XpKcj4Rmo-51" value="外部网络" style="whiteSpace=wrap;html=1;fillColor=#e1d5e7;fontSize=14;strokeColor=#9673a6;verticalAlign=top;" vertex="1" parent="1">
          <mxGeometry x="1890" y="217.5" width="450" height="283.25" as="geometry" />
        </mxCell>
        <mxCell id="6a7d8f32e03d9370-61" value="内部网络" style="whiteSpace=wrap;html=1;fillColor=#d5e8d4;fontSize=14;strokeColor=#82b366;verticalAlign=top;" parent="1" vertex="1">
          <mxGeometry x="1890" y="887.5" width="450" height="360" as="geometry" />
        </mxCell>
        <mxCell id="6a7d8f32e03d9370-60" value="内部网络" style="whiteSpace=wrap;html=1;fillColor=#d5e8d4;fontSize=14;strokeColor=none;verticalAlign=top;" parent="1" vertex="1">
          <mxGeometry x="950" y="195" width="570" height="1195" as="geometry" />
        </mxCell>
        <mxCell id="6a7d8f32e03d9370-59" value="安全接入" style="whiteSpace=wrap;html=1;fillColor=#EDEDED;fontSize=14;strokeColor=none;verticalAlign=top;" parent="1" vertex="1">
          <mxGeometry x="492.5" y="501" width="280" height="320" as="geometry" />
        </mxCell>
        <mxCell id="6a7d8f32e03d9370-58" value="用户网络" style="whiteSpace=wrap;html=1;fillColor=#dae8fc;fontSize=14;strokeColor=none;verticalAlign=top;" parent="1" vertex="1">
          <mxGeometry x="30" y="500.75" width="310" height="318" as="geometry" />
        </mxCell>
        <mxCell id="6a7d8f32e03d9370-36" style="edgeStyle=none;rounded=0;html=1;startSize=10;endSize=10;jettySize=auto;orthogonalLoop=1;fontSize=14;endArrow=none;endFill=0;strokeWidth=2;entryX=0.032;entryY=0.443;entryDx=0;entryDy=0;entryPerimeter=0;" parent="1" source="6a7d8f32e03d9370-1" target="6a7d8f32e03d9370-19" edge="1">
          <mxGeometry relative="1" as="geometry">
            <mxPoint x="530.5" y="1155.1923076923076" as="targetPoint" />
          </mxGeometry>
        </mxCell>
        <mxCell id="6a7d8f32e03d9370-1" value="Client" style="verticalLabelPosition=bottom;aspect=fixed;html=1;verticalAlign=top;strokeColor=none;shape=mxgraph.citrix.laptop_2;fillColor=#66B2FF;gradientColor=#0066CC;fontSize=14;" parent="1" vertex="1">
          <mxGeometry x="203.4999999999999" y="564.75" width="116" height="86.5" as="geometry" />
        </mxCell>
        <mxCell id="6a7d8f32e03d9370-37" style="edgeStyle=none;rounded=0;html=1;startSize=10;endSize=10;jettySize=auto;orthogonalLoop=1;fontSize=14;endArrow=none;endFill=0;strokeWidth=2;entryX=-0.046;entryY=0.519;entryDx=0;entryDy=0;entryPerimeter=0;" parent="1" source="6a7d8f32e03d9370-6" target="6a7d8f32e03d9370-19" edge="1">
          <mxGeometry relative="1" as="geometry">
            <mxPoint x="530.5" y="1173.0515947467165" as="targetPoint" />
          </mxGeometry>
        </mxCell>
        <mxCell id="6a7d8f32e03d9370-6" value="Client" style="verticalLabelPosition=bottom;aspect=fixed;html=1;verticalAlign=top;strokeColor=none;shape=mxgraph.citrix.pda;fillColor=#66B2FF;gradientColor=#0066CC;fontSize=14;" parent="1" vertex="1">
          <mxGeometry x="246.50000000000006" y="702.75" width="30" height="61" as="geometry" />
        </mxCell>
        <mxCell id="6a7d8f32e03d9370-15" value="10.172.24.28" style="verticalLabelPosition=top;aspect=fixed;html=1;verticalAlign=bottom;strokeColor=none;shape=mxgraph.citrix.cache_server;fillColor=#66B2FF;gradientColor=#0066CC;fontSize=14;labelPosition=center;align=center;" parent="1" vertex="1">
          <mxGeometry x="1055" y="255.5" width="71" height="97.5" as="geometry" />
        </mxCell>
        <mxCell id="6a7d8f32e03d9370-19" value="" style="verticalLabelPosition=bottom;aspect=fixed;html=1;verticalAlign=top;strokeColor=none;shape=mxgraph.citrix.firewall;fillColor=#66B2FF;gradientColor=#0066CC;fontSize=14;" parent="1" vertex="1">
          <mxGeometry x="523.5" y="628" width="75" height="93" as="geometry" />
        </mxCell>
        <mxCell id="6a7d8f32e03d9370-47" style="edgeStyle=none;rounded=0;html=1;startSize=10;endSize=10;jettySize=auto;orthogonalLoop=1;fontSize=14;endArrow=none;endFill=0;strokeWidth=2;" parent="1" target="mrG-GgRrGo7XpKcj4Rmo-6" edge="1">
          <mxGeometry relative="1" as="geometry">
            <mxPoint x="583.5" y="681" as="sourcePoint" />
            <mxPoint x="653.5" y="675.6681240310079" as="targetPoint" />
          </mxGeometry>
        </mxCell>
        <mxCell id="6a7d8f32e03d9370-23" value="" style="verticalLabelPosition=bottom;aspect=fixed;html=1;verticalAlign=top;strokeColor=none;shape=mxgraph.citrix.home_office;fillColor=#66B2FF;gradientColor=#0066CC;fontSize=14;" parent="1" vertex="1">
          <mxGeometry x="60" y="592.75" width="80" height="55.5" as="geometry" />
        </mxCell>
        <mxCell id="6a7d8f32e03d9370-62" value="Citrix Network Architecture" style="text;strokeColor=none;fillColor=none;html=1;fontSize=24;fontStyle=1;verticalAlign=middle;align=center;" parent="1" vertex="1">
          <mxGeometry x="499" y="30" width="861" height="40" as="geometry" />
        </mxCell>
        <mxCell id="mrG-GgRrGo7XpKcj4Rmo-4" value="10.172.24.42" style="verticalLabelPosition=top;aspect=fixed;html=1;verticalAlign=bottom;strokeColor=none;shape=mxgraph.citrix.cache_server;fillColor=#66B2FF;gradientColor=#0066CC;fontSize=14;labelPosition=center;align=center;" vertex="1" parent="1">
          <mxGeometry x="1055" y="441.5" width="71" height="97.5" as="geometry" />
        </mxCell>
        <mxCell id="mrG-GgRrGo7XpKcj4Rmo-5" value="&lt;p class=&quot;MsoNormal&quot;&gt;&lt;span style=&quot;font-family: 宋体; font-size: 10.5pt;&quot;&gt;10.172.24.&lt;/span&gt;&lt;span style=&quot;font-family: 宋体; font-size: 10.5pt;&quot;&gt;88&lt;/span&gt;&lt;/p&gt;" style="verticalLabelPosition=top;aspect=fixed;html=1;verticalAlign=bottom;strokeColor=none;shape=mxgraph.citrix.cache_server;fillColor=#66B2FF;gradientColor=#0066CC;fontSize=14;labelPosition=center;align=center;" vertex="1" parent="1">
          <mxGeometry x="1055" y="622" width="71" height="97.5" as="geometry" />
        </mxCell>
        <mxCell id="mrG-GgRrGo7XpKcj4Rmo-6" value="" style="verticalLabelPosition=bottom;html=1;verticalAlign=top;strokeWidth=1;align=center;outlineConnect=0;dashed=0;outlineConnect=0;shape=mxgraph.aws3d.elasticLoadBalancing;fillColor=#ECECEC;strokeColor=#5E5E5E;aspect=fixed;" vertex="1" parent="1">
          <mxGeometry x="653.5" y="640" width="73.04" height="70" as="geometry" />
        </mxCell>
        <mxCell id="mrG-GgRrGo7XpKcj4Rmo-10" style="rounded=0;html=1;startSize=10;endSize=10;jettySize=auto;orthogonalLoop=1;fontSize=14;endArrow=none;endFill=0;strokeWidth=2;entryX=0.071;entryY=0.46;entryDx=0;entryDy=0;entryPerimeter=0;exitX=0.821;exitY=0.157;exitDx=0;exitDy=0;exitPerimeter=0;" edge="1" parent="1" source="mrG-GgRrGo7XpKcj4Rmo-6" target="6a7d8f32e03d9370-15">
          <mxGeometry relative="1" as="geometry">
            <mxPoint x="840" y="506" as="sourcePoint" />
            <mxPoint x="1485.5" y="542.75" as="targetPoint" />
          </mxGeometry>
        </mxCell>
        <mxCell id="mrG-GgRrGo7XpKcj4Rmo-11" style="edgeStyle=none;rounded=0;html=1;startSize=10;endSize=10;jettySize=auto;orthogonalLoop=1;fontSize=14;endArrow=none;endFill=0;strokeWidth=2;entryX=0.038;entryY=0.58;entryDx=0;entryDy=0;entryPerimeter=0;" edge="1" parent="1" source="mrG-GgRrGo7XpKcj4Rmo-6" target="mrG-GgRrGo7XpKcj4Rmo-4">
          <mxGeometry relative="1" as="geometry">
            <mxPoint x="1250" y="499" as="sourcePoint" />
            <mxPoint x="1431" y="604" as="targetPoint" />
          </mxGeometry>
        </mxCell>
        <mxCell id="mrG-GgRrGo7XpKcj4Rmo-12" style="edgeStyle=none;rounded=0;html=1;startSize=10;endSize=10;jettySize=auto;orthogonalLoop=1;fontSize=14;endArrow=none;endFill=0;strokeWidth=2;entryX=-0.045;entryY=0.466;entryDx=0;entryDy=0;entryPerimeter=0;" edge="1" parent="1" source="mrG-GgRrGo7XpKcj4Rmo-6" target="mrG-GgRrGo7XpKcj4Rmo-5">
          <mxGeometry relative="1" as="geometry">
            <mxPoint x="1350" y="345.75" as="sourcePoint" />
            <mxPoint x="1531" y="450.75" as="targetPoint" />
          </mxGeometry>
        </mxCell>
        <mxCell id="mrG-GgRrGo7XpKcj4Rmo-13" value="10.172.24.28" style="verticalLabelPosition=bottom;sketch=0;aspect=fixed;html=1;verticalAlign=top;strokeColor=none;align=center;outlineConnect=0;shape=mxgraph.citrix.command_center;" vertex="1" parent="1">
          <mxGeometry x="1360" y="247" width="75.5" height="96" as="geometry" />
        </mxCell>
        <mxCell id="mrG-GgRrGo7XpKcj4Rmo-14" value="&lt;p class=&quot;MsoNormal&quot;&gt;&lt;font style=&quot;font-size: 13px;&quot;&gt;&lt;span style=&quot;font-family: 宋体;&quot;&gt;10.172.24.&lt;/span&gt;&lt;span style=&quot;font-family: 宋体;&quot;&gt;88&lt;/span&gt;&lt;/font&gt;&lt;/p&gt;" style="verticalLabelPosition=bottom;sketch=0;aspect=fixed;html=1;verticalAlign=top;strokeColor=none;align=center;outlineConnect=0;shape=mxgraph.citrix.command_center;" vertex="1" parent="1">
          <mxGeometry x="1360" y="628" width="75.5" height="96" as="geometry" />
        </mxCell>
        <mxCell id="mrG-GgRrGo7XpKcj4Rmo-15" value="10.172.24.42" style="verticalLabelPosition=bottom;sketch=0;aspect=fixed;html=1;verticalAlign=top;strokeColor=none;align=center;outlineConnect=0;shape=mxgraph.citrix.command_center;" vertex="1" parent="1">
          <mxGeometry x="1360" y="460" width="75.5" height="96" as="geometry" />
        </mxCell>
        <mxCell id="mrG-GgRrGo7XpKcj4Rmo-21" style="edgeStyle=none;rounded=0;html=1;startSize=10;endSize=10;jettySize=auto;orthogonalLoop=1;fontSize=14;endArrow=none;endFill=0;strokeWidth=2;exitX=0.949;exitY=0.424;exitDx=0;exitDy=0;exitPerimeter=0;" edge="1" parent="1" source="6a7d8f32e03d9370-15" target="mrG-GgRrGo7XpKcj4Rmo-13">
          <mxGeometry relative="1" as="geometry">
            <mxPoint x="1460" y="392" as="sourcePoint" />
            <mxPoint x="1685" y="361" as="targetPoint" />
          </mxGeometry>
        </mxCell>
        <mxCell id="mrG-GgRrGo7XpKcj4Rmo-22" style="edgeStyle=none;rounded=0;html=1;startSize=10;endSize=10;jettySize=auto;orthogonalLoop=1;fontSize=14;endArrow=none;endFill=0;strokeWidth=2;exitX=0.915;exitY=0.456;exitDx=0;exitDy=0;exitPerimeter=0;" edge="1" parent="1" source="6a7d8f32e03d9370-15" target="mrG-GgRrGo7XpKcj4Rmo-15">
          <mxGeometry relative="1" as="geometry">
            <mxPoint x="1470" y="402" as="sourcePoint" />
            <mxPoint x="1695" y="371" as="targetPoint" />
          </mxGeometry>
        </mxCell>
        <mxCell id="mrG-GgRrGo7XpKcj4Rmo-23" style="edgeStyle=none;rounded=0;html=1;startSize=10;endSize=10;jettySize=auto;orthogonalLoop=1;fontSize=14;endArrow=none;endFill=0;strokeWidth=2;exitX=0.949;exitY=0.533;exitDx=0;exitDy=0;exitPerimeter=0;" edge="1" parent="1" source="6a7d8f32e03d9370-15" target="mrG-GgRrGo7XpKcj4Rmo-14">
          <mxGeometry relative="1" as="geometry">
            <mxPoint x="1480" y="412" as="sourcePoint" />
            <mxPoint x="1705" y="381" as="targetPoint" />
          </mxGeometry>
        </mxCell>
        <mxCell id="mrG-GgRrGo7XpKcj4Rmo-24" style="edgeStyle=none;rounded=0;html=1;startSize=10;endSize=10;jettySize=auto;orthogonalLoop=1;fontSize=14;endArrow=none;endFill=0;strokeWidth=2;exitX=0.966;exitY=0.544;exitDx=0;exitDy=0;exitPerimeter=0;" edge="1" parent="1" source="mrG-GgRrGo7XpKcj4Rmo-4" target="mrG-GgRrGo7XpKcj4Rmo-13">
          <mxGeometry relative="1" as="geometry">
            <mxPoint x="1486" y="340" as="sourcePoint" />
            <mxPoint x="1723.5" y="354" as="targetPoint" />
          </mxGeometry>
        </mxCell>
        <mxCell id="mrG-GgRrGo7XpKcj4Rmo-25" style="edgeStyle=none;rounded=0;html=1;startSize=10;endSize=10;jettySize=auto;orthogonalLoop=1;fontSize=14;endArrow=none;endFill=0;strokeWidth=2;exitX=0.949;exitY=0.58;exitDx=0;exitDy=0;exitPerimeter=0;" edge="1" parent="1" source="mrG-GgRrGo7XpKcj4Rmo-4" target="mrG-GgRrGo7XpKcj4Rmo-15">
          <mxGeometry relative="1" as="geometry">
            <mxPoint x="1495.5" y="350" as="sourcePoint" />
            <mxPoint x="1733.5" y="364" as="targetPoint" />
          </mxGeometry>
        </mxCell>
        <mxCell id="mrG-GgRrGo7XpKcj4Rmo-26" style="edgeStyle=none;rounded=0;html=1;startSize=10;endSize=10;jettySize=auto;orthogonalLoop=1;fontSize=14;endArrow=none;endFill=0;strokeWidth=2;exitX=1.016;exitY=0.689;exitDx=0;exitDy=0;exitPerimeter=0;" edge="1" parent="1" source="mrG-GgRrGo7XpKcj4Rmo-4" target="mrG-GgRrGo7XpKcj4Rmo-14">
          <mxGeometry relative="1" as="geometry">
            <mxPoint x="1505.5" y="360" as="sourcePoint" />
            <mxPoint x="1743.5" y="374" as="targetPoint" />
          </mxGeometry>
        </mxCell>
        <mxCell id="mrG-GgRrGo7XpKcj4Rmo-27" style="edgeStyle=none;rounded=0;html=1;startSize=10;endSize=10;jettySize=auto;orthogonalLoop=1;fontSize=14;endArrow=none;endFill=0;strokeWidth=2;exitX=0.983;exitY=0.527;exitDx=0;exitDy=0;exitPerimeter=0;entryX=0;entryY=0.573;entryDx=0;entryDy=0;entryPerimeter=0;" edge="1" parent="1" source="mrG-GgRrGo7XpKcj4Rmo-5" target="mrG-GgRrGo7XpKcj4Rmo-13">
          <mxGeometry relative="1" as="geometry">
            <mxPoint x="1515.5" y="370" as="sourcePoint" />
            <mxPoint x="1753.5" y="384" as="targetPoint" />
          </mxGeometry>
        </mxCell>
        <mxCell id="mrG-GgRrGo7XpKcj4Rmo-29" style="edgeStyle=none;rounded=0;html=1;startSize=10;endSize=10;jettySize=auto;orthogonalLoop=1;fontSize=14;endArrow=none;endFill=0;strokeWidth=2;exitX=0.949;exitY=0.611;exitDx=0;exitDy=0;exitPerimeter=0;" edge="1" parent="1" source="mrG-GgRrGo7XpKcj4Rmo-5" target="mrG-GgRrGo7XpKcj4Rmo-15">
          <mxGeometry relative="1" as="geometry">
            <mxPoint x="1525.5" y="380" as="sourcePoint" />
            <mxPoint x="1763.5" y="394" as="targetPoint" />
          </mxGeometry>
        </mxCell>
        <mxCell id="mrG-GgRrGo7XpKcj4Rmo-30" style="edgeStyle=none;rounded=0;html=1;startSize=10;endSize=10;jettySize=auto;orthogonalLoop=1;fontSize=14;endArrow=none;endFill=0;strokeWidth=2;exitX=0.916;exitY=0.659;exitDx=0;exitDy=0;exitPerimeter=0;" edge="1" parent="1" source="mrG-GgRrGo7XpKcj4Rmo-5" target="mrG-GgRrGo7XpKcj4Rmo-14">
          <mxGeometry relative="1" as="geometry">
            <mxPoint x="1535.5" y="390" as="sourcePoint" />
            <mxPoint x="1773.5" y="404" as="targetPoint" />
          </mxGeometry>
        </mxCell>
        <mxCell id="mrG-GgRrGo7XpKcj4Rmo-31" style="edgeStyle=none;rounded=0;html=1;startSize=10;endSize=10;jettySize=auto;orthogonalLoop=1;fontSize=14;endArrow=none;endFill=0;strokeWidth=2;" edge="1" parent="1" source="mrG-GgRrGo7XpKcj4Rmo-13" target="mrG-GgRrGo7XpKcj4Rmo-33">
          <mxGeometry relative="1" as="geometry">
            <mxPoint x="1545.5" y="400" as="sourcePoint" />
            <mxPoint x="1783.5" y="414" as="targetPoint" />
          </mxGeometry>
        </mxCell>
        <mxCell id="mrG-GgRrGo7XpKcj4Rmo-33" value="" style="verticalLabelPosition=bottom;sketch=0;aspect=fixed;html=1;verticalAlign=top;strokeColor=none;align=center;outlineConnect=0;shape=mxgraph.citrix.web_service;" vertex="1" parent="1">
          <mxGeometry x="2050" y="297.5" width="63" height="60" as="geometry" />
        </mxCell>
        <mxCell id="mrG-GgRrGo7XpKcj4Rmo-34" style="edgeStyle=none;rounded=0;html=1;startSize=10;endSize=10;jettySize=auto;orthogonalLoop=1;fontSize=14;endArrow=none;endFill=0;strokeWidth=2;" edge="1" parent="1" source="mrG-GgRrGo7XpKcj4Rmo-15" target="mrG-GgRrGo7XpKcj4Rmo-33">
          <mxGeometry relative="1" as="geometry">
            <mxPoint x="1435" y="371" as="sourcePoint" />
            <mxPoint x="1685" y="820" as="targetPoint" />
          </mxGeometry>
        </mxCell>
        <mxCell id="mrG-GgRrGo7XpKcj4Rmo-35" style="edgeStyle=none;rounded=0;html=1;startSize=10;endSize=10;jettySize=auto;orthogonalLoop=1;fontSize=14;endArrow=none;endFill=0;strokeWidth=2;" edge="1" parent="1" source="mrG-GgRrGo7XpKcj4Rmo-14" target="mrG-GgRrGo7XpKcj4Rmo-33">
          <mxGeometry relative="1" as="geometry">
            <mxPoint x="1456" y="545" as="sourcePoint" />
            <mxPoint x="1695" y="830" as="targetPoint" />
          </mxGeometry>
        </mxCell>
        <mxCell id="mrG-GgRrGo7XpKcj4Rmo-37" value="10.172.24.28" style="verticalLabelPosition=bottom;sketch=0;aspect=fixed;html=1;verticalAlign=top;strokeColor=none;align=center;outlineConnect=0;shape=mxgraph.citrix.command_center;" vertex="1" parent="1">
          <mxGeometry x="1060" y="753.25" width="75.5" height="96" as="geometry" />
        </mxCell>
        <mxCell id="mrG-GgRrGo7XpKcj4Rmo-38" value="&lt;p class=&quot;MsoNormal&quot;&gt;&lt;font style=&quot;&quot;&gt;&lt;span style=&quot;font-family: 宋体;&quot;&gt;10.172.24.&lt;/span&gt;&lt;span style=&quot;font-family: 宋体;&quot;&gt;88&lt;/span&gt;&lt;/font&gt;&lt;/p&gt;" style="verticalLabelPosition=bottom;sketch=0;aspect=fixed;html=1;verticalAlign=top;strokeColor=none;align=center;outlineConnect=0;shape=mxgraph.citrix.command_center;" vertex="1" parent="1">
          <mxGeometry x="1060" y="1147" width="75.5" height="96" as="geometry" />
        </mxCell>
        <mxCell id="mrG-GgRrGo7XpKcj4Rmo-39" value="10.172.24.42" style="verticalLabelPosition=bottom;sketch=0;aspect=fixed;html=1;verticalAlign=top;strokeColor=none;align=center;outlineConnect=0;shape=mxgraph.citrix.command_center;" vertex="1" parent="1">
          <mxGeometry x="1060" y="966.25" width="75.5" height="96" as="geometry" />
        </mxCell>
        <mxCell id="mrG-GgRrGo7XpKcj4Rmo-41" style="edgeStyle=none;rounded=0;html=1;startSize=10;endSize=10;jettySize=auto;orthogonalLoop=1;fontSize=14;endArrow=none;endFill=0;strokeWidth=2;" edge="1" parent="1" source="mrG-GgRrGo7XpKcj4Rmo-6" target="mrG-GgRrGo7XpKcj4Rmo-38">
          <mxGeometry relative="1" as="geometry">
            <mxPoint x="609" y="827" as="sourcePoint" />
            <mxPoint x="834" y="796" as="targetPoint" />
          </mxGeometry>
        </mxCell>
        <mxCell id="mrG-GgRrGo7XpKcj4Rmo-42" style="edgeStyle=none;rounded=0;html=1;startSize=10;endSize=10;jettySize=auto;orthogonalLoop=1;fontSize=14;endArrow=none;endFill=0;strokeWidth=2;" edge="1" parent="1" source="mrG-GgRrGo7XpKcj4Rmo-6" target="mrG-GgRrGo7XpKcj4Rmo-39">
          <mxGeometry relative="1" as="geometry">
            <mxPoint x="619" y="837" as="sourcePoint" />
            <mxPoint x="844" y="806" as="targetPoint" />
          </mxGeometry>
        </mxCell>
        <mxCell id="mrG-GgRrGo7XpKcj4Rmo-43" style="edgeStyle=none;rounded=0;html=1;startSize=10;endSize=10;jettySize=auto;orthogonalLoop=1;fontSize=14;endArrow=none;endFill=0;strokeWidth=2;" edge="1" parent="1" source="mrG-GgRrGo7XpKcj4Rmo-6" target="mrG-GgRrGo7XpKcj4Rmo-37">
          <mxGeometry relative="1" as="geometry">
            <mxPoint x="629" y="847" as="sourcePoint" />
            <mxPoint x="854" y="816" as="targetPoint" />
          </mxGeometry>
        </mxCell>
        <mxCell id="mrG-GgRrGo7XpKcj4Rmo-44" value="" style="verticalLabelPosition=bottom;sketch=0;aspect=fixed;html=1;verticalAlign=top;strokeColor=#d79b00;align=center;outlineConnect=0;shape=mxgraph.citrix.database;fillColor=#ffe6cc;" vertex="1" parent="1">
          <mxGeometry x="2052.5" y="627.5" width="60.5" height="71.18" as="geometry" />
        </mxCell>
        <mxCell id="mrG-GgRrGo7XpKcj4Rmo-45" style="edgeStyle=none;rounded=0;html=1;startSize=10;endSize=10;jettySize=auto;orthogonalLoop=1;fontSize=14;endArrow=none;endFill=0;strokeWidth=2;" edge="1" parent="1" source="mrG-GgRrGo7XpKcj4Rmo-44" target="mrG-GgRrGo7XpKcj4Rmo-14">
          <mxGeometry relative="1" as="geometry">
            <mxPoint x="609" y="827" as="sourcePoint" />
            <mxPoint x="834" y="796" as="targetPoint" />
          </mxGeometry>
        </mxCell>
        <mxCell id="mrG-GgRrGo7XpKcj4Rmo-46" style="edgeStyle=none;rounded=0;html=1;startSize=10;endSize=10;jettySize=auto;orthogonalLoop=1;fontSize=14;endArrow=none;endFill=0;strokeWidth=2;" edge="1" parent="1" source="mrG-GgRrGo7XpKcj4Rmo-44" target="mrG-GgRrGo7XpKcj4Rmo-15">
          <mxGeometry relative="1" as="geometry">
            <mxPoint x="619" y="837" as="sourcePoint" />
            <mxPoint x="844" y="806" as="targetPoint" />
          </mxGeometry>
        </mxCell>
        <mxCell id="mrG-GgRrGo7XpKcj4Rmo-47" style="edgeStyle=none;rounded=0;html=1;startSize=10;endSize=10;jettySize=auto;orthogonalLoop=1;fontSize=14;endArrow=none;endFill=0;strokeWidth=2;" edge="1" parent="1" source="mrG-GgRrGo7XpKcj4Rmo-44" target="mrG-GgRrGo7XpKcj4Rmo-13">
          <mxGeometry relative="1" as="geometry">
            <mxPoint x="629" y="847" as="sourcePoint" />
            <mxPoint x="854" y="816" as="targetPoint" />
          </mxGeometry>
        </mxCell>
        <mxCell id="mrG-GgRrGo7XpKcj4Rmo-48" style="edgeStyle=none;rounded=0;html=1;startSize=10;endSize=10;jettySize=auto;orthogonalLoop=1;fontSize=14;endArrow=none;endFill=0;strokeWidth=2;" edge="1" parent="1" source="mrG-GgRrGo7XpKcj4Rmo-44" target="mrG-GgRrGo7XpKcj4Rmo-38">
          <mxGeometry relative="1" as="geometry">
            <mxPoint x="609" y="827" as="sourcePoint" />
            <mxPoint x="834" y="796" as="targetPoint" />
          </mxGeometry>
        </mxCell>
        <mxCell id="mrG-GgRrGo7XpKcj4Rmo-49" style="edgeStyle=none;rounded=0;html=1;startSize=10;endSize=10;jettySize=auto;orthogonalLoop=1;fontSize=14;endArrow=none;endFill=0;strokeWidth=2;" edge="1" parent="1" source="mrG-GgRrGo7XpKcj4Rmo-44" target="mrG-GgRrGo7XpKcj4Rmo-39">
          <mxGeometry relative="1" as="geometry">
            <mxPoint x="619" y="837" as="sourcePoint" />
            <mxPoint x="844" y="806" as="targetPoint" />
          </mxGeometry>
        </mxCell>
        <mxCell id="mrG-GgRrGo7XpKcj4Rmo-50" style="edgeStyle=none;rounded=0;html=1;startSize=10;endSize=10;jettySize=auto;orthogonalLoop=1;fontSize=14;endArrow=none;endFill=0;strokeWidth=2;" edge="1" parent="1" source="mrG-GgRrGo7XpKcj4Rmo-44" target="mrG-GgRrGo7XpKcj4Rmo-37">
          <mxGeometry relative="1" as="geometry">
            <mxPoint x="629" y="847" as="sourcePoint" />
            <mxPoint x="854" y="816" as="targetPoint" />
          </mxGeometry>
        </mxCell>
        <mxCell id="mrG-GgRrGo7XpKcj4Rmo-53" value="" style="image;points=[];aspect=fixed;html=1;align=center;shadow=0;dashed=0;image=img/lib/allied_telesis/buildings/Building_Cluster.svg;" vertex="1" parent="1">
          <mxGeometry x="2022.15" y="997.5" width="121.2" height="111" as="geometry" />
        </mxCell>
        <mxCell id="mrG-GgRrGo7XpKcj4Rmo-54" style="edgeStyle=none;rounded=0;html=1;startSize=10;endSize=10;jettySize=auto;orthogonalLoop=1;fontSize=14;endArrow=none;endFill=0;strokeWidth=2;" edge="1" parent="1" source="mrG-GgRrGo7XpKcj4Rmo-53" target="mrG-GgRrGo7XpKcj4Rmo-39">
          <mxGeometry relative="1" as="geometry">
            <mxPoint x="1580" y="1030" as="sourcePoint" />
            <mxPoint x="1145" y="1185" as="targetPoint" />
          </mxGeometry>
        </mxCell>
        <mxCell id="mrG-GgRrGo7XpKcj4Rmo-55" style="edgeStyle=none;rounded=0;html=1;startSize=10;endSize=10;jettySize=auto;orthogonalLoop=1;fontSize=14;endArrow=none;endFill=0;strokeWidth=2;" edge="1" parent="1">
          <mxGeometry relative="1" as="geometry">
            <mxPoint x="2064" y="1071" as="sourcePoint" />
            <mxPoint x="1155" y="1195" as="targetPoint" />
          </mxGeometry>
        </mxCell>
        <mxCell id="mrG-GgRrGo7XpKcj4Rmo-56" style="edgeStyle=none;rounded=0;html=1;startSize=10;endSize=10;jettySize=auto;orthogonalLoop=1;fontSize=14;endArrow=none;endFill=0;strokeWidth=2;" edge="1" parent="1" source="mrG-GgRrGo7XpKcj4Rmo-53" target="mrG-GgRrGo7XpKcj4Rmo-37">
          <mxGeometry relative="1" as="geometry">
            <mxPoint x="2074" y="1081" as="sourcePoint" />
            <mxPoint x="1165" y="1205" as="targetPoint" />
          </mxGeometry>
        </mxCell>
        <mxCell id="mrG-GgRrGo7XpKcj4Rmo-57" style="edgeStyle=none;rounded=0;html=1;startSize=10;endSize=10;jettySize=auto;orthogonalLoop=1;fontSize=14;endArrow=none;endFill=0;strokeWidth=2;" edge="1" parent="1" source="mrG-GgRrGo7XpKcj4Rmo-53" target="mrG-GgRrGo7XpKcj4Rmo-44">
          <mxGeometry relative="1" as="geometry">
            <mxPoint x="2064" y="1061" as="sourcePoint" />
            <mxPoint x="1145" y="1026" as="targetPoint" />
          </mxGeometry>
        </mxCell>
      </root>
    </mxGraphModel>
  </diagram>
</mxfile>
